<?xml version="1.0" encoding="iso-8859-1"?>
<!-- Generator: Adobe Illustrator 15.0.0, SVG Export Plug-In . SVG Version: 6.00 Build 0)  -->
<!DOCTYPE svg PUBLIC "-//W3C//DTD SVG 1.1//EN" "http://www.w3.org/Graphics/SVG/1.1/DTD/svg11.dtd">
<svg version="1.1" id="Layer_1" xmlns="http://www.w3.org/2000/svg" xmlns:xlink="http://www.w3.org/1999/xlink" x="0px" y="0px"
	width="135px" height="40px" viewBox="0 0 135 40" style="enable-background:new 0 0 135 40;" xml:space="preserve">
<g>
	<defs>
		<rect id="SVGID_1_" width="135" height="40"/>
	</defs>
	<clipPath id="SVGID_2_">
		<use xlink:href="#SVGID_1_"  style="overflow:visible;"/>
	</clipPath>
	<path style="clip-path:url(#SVGID_2_);fill:#A6A6A6;" d="M130.2,40H4.7C2.1,40,0,37.9,0,35.3V4.7C0,2.1,2.1,0,4.7,0h125.5
		c2.6,0,4.8,2.1,4.8,4.7v30.5C135,37.9,132.8,40,130.2,40"/>
	<path style="clip-path:url(#SVGID_2_);" d="M134,35.3c0,2.1-1.7,3.8-3.8,3.8H4.7c-2.1,0-3.8-1.7-3.8-3.8V4.7c0-2.1,1.7-3.8,3.8-3.8
		h125.5c2.1,0,3.8,1.7,3.8,3.8L134,35.3L134,35.3z"/>
	<path style="clip-path:url(#SVGID_2_);fill:#FFFFFF;" d="M30.1,19.8c0-3.2,2.6-4.8,2.8-4.9c-1.5-2.2-3.9-2.5-4.7-2.5
		c-2-0.2-3.9,1.2-4.9,1.2c-1,0-2.6-1.2-4.2-1.1c-2.1,0-4.1,1.3-5.2,3.2c-2.3,3.9-0.6,9.7,1.6,12.9c1.1,1.6,2.4,3.3,4,3.2
		c1.6-0.1,2.2-1,4.2-1c1.9,0,2.5,1,4.2,1c1.7,0,2.8-1.6,3.9-3.1c1.3-1.8,1.8-3.5,1.8-3.6C33.5,24.9,30.2,23.6,30.1,19.8"/>
	<path style="clip-path:url(#SVGID_2_);fill:#FFFFFF;" d="M26.9,10.3c0.9-1.1,1.5-2.6,1.3-4.1c-1.3,0.1-2.8,0.9-3.8,1.9
		c-0.8,0.9-1.5,2.5-1.3,3.9C24.6,12.2,26,11.4,26.9,10.3"/>
	<path style="clip-path:url(#SVGID_2_);fill:#FFFFFF;" d="M54,17.2h-2l-1.1-3.5h-3.8l-1,3.5h-2l3.8-11.8h2.3L54,17.2z M50.6,12.3
		l-1-3.1C49.5,8.9,49.3,8.2,49,7h0c-0.1,0.5-0.3,1.2-0.6,2.2l-1,3.1H50.6z"/>
	<path style="clip-path:url(#SVGID_2_);fill:#FFFFFF;" d="M63.7,12.8c0,1.4-0.4,2.6-1.2,3.4C61.9,17,61,17.4,60,17.4
		c-1.1,0-1.9-0.4-2.4-1.2v4.4h-1.9v-9.1c0-0.9,0-1.8-0.1-2.8h1.7l0.1,1.3h0C58,9,59,8.5,60.2,8.5c1,0,1.8,0.4,2.5,1.2
		C63.4,10.5,63.7,11.5,63.7,12.8 M61.8,12.9c0-0.8-0.2-1.5-0.6-2c-0.4-0.6-1-0.8-1.6-0.8c-0.5,0-0.9,0.2-1.3,0.5
		c-0.4,0.3-0.6,0.7-0.7,1.2c-0.1,0.2-0.1,0.4-0.1,0.6v1.4c0,0.6,0.2,1.1,0.6,1.6c0.4,0.4,0.9,0.6,1.5,0.6c0.7,0,1.3-0.3,1.7-0.8
		C61.6,14.5,61.8,13.8,61.8,12.9"/>
	<path style="clip-path:url(#SVGID_2_);fill:#FFFFFF;" d="M73.5,12.8c0,1.4-0.4,2.6-1.2,3.4c-0.7,0.7-1.6,1.1-2.6,1.1
		c-1.1,0-1.9-0.4-2.4-1.2v4.4h-1.9v-9.1c0-0.9,0-1.8-0.1-2.8H67l0.1,1.3h0c0.6-1,1.6-1.5,2.9-1.5c1,0,1.8,0.4,2.5,1.2
		C73.2,10.5,73.5,11.5,73.5,12.8 M71.6,12.9c0-0.8-0.2-1.5-0.6-2c-0.4-0.6-1-0.8-1.6-0.8c-0.5,0-0.9,0.2-1.3,0.5
		c-0.4,0.3-0.6,0.7-0.7,1.2c-0.1,0.2-0.1,0.4-0.1,0.6v1.4c0,0.6,0.2,1.1,0.6,1.6c0.4,0.4,0.9,0.6,1.5,0.6c0.7,0,1.3-0.3,1.7-0.8
		S71.6,13.8,71.6,12.9"/>
	<path style="clip-path:url(#SVGID_2_);fill:#FFFFFF;" d="M86.8,13.9c0,1-0.3,1.8-1,2.4c-0.8,0.7-1.8,1-3.2,1c-1.3,0-2.3-0.2-3-0.7
		l0.4-1.6c0.8,0.5,1.7,0.7,2.7,0.7c0.7,0,1.3-0.2,1.7-0.5c0.4-0.3,0.6-0.7,0.6-1.3c0-0.5-0.2-0.9-0.5-1.2c-0.3-0.3-0.9-0.6-1.6-0.9
		c-2.1-0.8-3.1-1.9-3.1-3.4c0-1,0.4-1.8,1.1-2.4c0.7-0.6,1.7-0.9,2.9-0.9c1.1,0,2,0.2,2.7,0.6l-0.5,1.5c-0.7-0.4-1.4-0.5-2.3-0.5
		c-0.7,0-1.2,0.2-1.6,0.5c-0.3,0.3-0.5,0.6-0.5,1.1c0,0.5,0.2,0.8,0.5,1.2c0.3,0.3,0.9,0.6,1.7,0.9c1,0.4,1.8,0.9,2.2,1.4
		C86.5,12.4,86.8,13.1,86.8,13.9"/>
	<path style="clip-path:url(#SVGID_2_);fill:#FFFFFF;" d="M93,10.1h-2.1v4.1c0,1,0.4,1.6,1.1,1.6c0.3,0,0.6,0,0.8-0.1l0.1,1.4
		c-0.4,0.1-0.9,0.2-1.5,0.2c-0.7,0-1.3-0.2-1.7-0.7c-0.4-0.5-0.6-1.2-0.6-2.3v-4.3h-1.2V8.7h1.2V7.1l1.8-0.6v2.1H93V10.1z"/>
	<path style="clip-path:url(#SVGID_2_);fill:#FFFFFF;" d="M102.4,12.9c0,1.3-0.4,2.4-1.1,3.2c-0.8,0.9-1.8,1.3-3.1,1.3
		c-1.2,0-2.2-0.4-3-1.2c-0.7-0.8-1.1-1.9-1.1-3.1c0-1.3,0.4-2.4,1.1-3.2C96,8.9,97,8.5,98.3,8.5c1.2,0,2.2,0.4,3,1.2
		C102,10.6,102.4,11.6,102.4,12.9 M100.4,12.9c0-0.8-0.2-1.4-0.5-2c-0.4-0.7-1-1-1.7-1c-0.8,0-1.3,0.3-1.7,1c-0.3,0.6-0.5,1.2-0.5,2
		c0,0.8,0.2,1.4,0.5,2c0.4,0.7,1,1,1.7,1c0.7,0,1.3-0.3,1.7-1C100.2,14.4,100.4,13.7,100.4,12.9"/>
	<path style="clip-path:url(#SVGID_2_);fill:#FFFFFF;" d="M108.5,10.4c-0.2,0-0.4-0.1-0.6-0.1c-0.7,0-1.2,0.2-1.5,0.8
		c-0.3,0.4-0.5,1-0.5,1.7v4.5H104v-5.8c0-1,0-1.9-0.1-2.7h1.6l0.1,1.6h0.1c0.2-0.6,0.5-1,0.9-1.3c0.4-0.3,0.9-0.5,1.4-0.5
		c0.2,0,0.3,0,0.5,0V10.4z"/>
	<path style="clip-path:url(#SVGID_2_);fill:#FFFFFF;" d="M116.9,12.5c0,0.3,0,0.6-0.1,0.9h-5.7c0,0.8,0.3,1.5,0.8,1.9
		c0.5,0.4,1.1,0.6,1.8,0.6c0.8,0,1.6-0.1,2.3-0.4l0.3,1.3c-0.8,0.3-1.8,0.5-2.8,0.5c-1.3,0-2.3-0.4-3.1-1.2
		c-0.8-0.8-1.1-1.8-1.1-3.1c0-1.3,0.3-2.3,1-3.2c0.7-0.9,1.7-1.4,3-1.4c1.2,0,2.1,0.5,2.8,1.4C116.7,10.6,116.9,11.5,116.9,12.5
		M115.1,12c0-0.6-0.1-1-0.4-1.4c-0.3-0.5-0.8-0.8-1.5-0.8c-0.6,0-1.1,0.3-1.5,0.8c-0.3,0.4-0.5,0.9-0.6,1.5H115.1z"/>
	<path style="clip-path:url(#SVGID_2_);fill:#FFFFFF;" d="M46.3,26.9c0.2-0.9,0.4-1.8,0.5-2.7l1,0.1c-0.1,0.8-0.3,1.7-0.5,2.5
		c0.3,0,0.6,0,0.8,0c1.6,0,2.3,0.8,2.3,2.6c0,1.8-0.3,3.4-0.7,4.1c-0.4,0.6-0.8,0.8-1.5,0.8c-0.6,0-1.2-0.1-1.7-0.2l0.1-0.9
		c0.5,0.2,1,0.2,1.4,0.2c0.4,0,0.6-0.1,0.8-0.4c0.4-0.6,0.6-2,0.6-3.5c0-1.3-0.4-1.7-1.4-1.7c-0.3,0-0.6,0-1,0
		c-0.6,2.4-1.5,4.5-2.6,6l-0.9-0.5c1-1.3,1.9-3.3,2.4-5.5c-0.8,0.1-1.6,0.2-2.4,0.4l-0.2-0.9C44.3,27.2,45.4,27,46.3,26.9 M54,31
		l-1,0.2c-0.2-1.5-0.9-3.3-2.1-4.6l0.8-0.5C53,27.5,53.8,29.5,54,31"/>
	<path style="clip-path:url(#SVGID_2_);fill:#FFFFFF;" d="M56.8,30.2c1.2-0.8,2.6-1.4,3.9-1.4c1.8,0,2.9,0.9,2.9,2.4
		c0,1.9-1.5,3.1-5.2,3.1c-0.2,0-0.4,0-0.5,0l-0.2-0.9c0.3,0,0.6,0,0.9,0c2.9,0,4-0.8,4-2.1c0-1-0.7-1.6-2.1-1.6
		c-1.2,0-2.6,0.7-3.9,1.8l-0.8-0.4c0-2.5,0.3-3.7,1.2-5l0.9,0.3C57,27.6,56.8,28.7,56.8,30.2 M56.7,25.1l0.3-0.9
		c1.6,0.2,4.1,0.8,5.2,1.2l-0.3,0.9C60.8,25.9,58.2,25.3,56.7,25.1"/>
	<path style="clip-path:url(#SVGID_2_);fill:#FFFFFF;" d="M68.3,28.2c0.9,0.5,2,1.2,2.8,1.8c0.7-1.1,1.2-2.2,1.4-3.4h-3.8
		c-0.9,1.4-2,2.7-3.1,3.5l-0.8-0.7c1.6-1.2,3.2-3.5,3.9-5.2l1,0.3c-0.1,0.4-0.3,0.7-0.5,1.1H73l0.7,0.4c-0.8,3.8-3,6.9-6.4,8.3
		l-0.7-0.9c1.6-0.6,2.8-1.5,3.8-2.7c-0.8-0.6-1.9-1.4-2.8-1.9L68.3,28.2z M72.9,23.8c0.5,0.5,0.9,1,1.2,1.6l-0.5,0.4
		c-0.4-0.6-0.7-1.1-1.2-1.6L72.9,23.8z M74.4,23.5c0.5,0.5,0.9,1,1.2,1.6l-0.5,0.4c-0.3-0.6-0.7-1.1-1.2-1.6L74.4,23.5z"/>
	<path style="clip-path:url(#SVGID_2_);fill:#FFFFFF;" d="M80.4,26.3v-2h1.1v2h3.1l0.9,0.4c-0.3,3.6-1.7,6.3-5.4,7.7l-0.6-0.9
		c3.5-1.2,4.7-3.5,4.9-6.2H78v2.7h-1.1v-3.7H80.4z"/>
	<path style="clip-path:url(#SVGID_2_);fill:#FFFFFF;" d="M91.3,27.3l-0.7,0.9c-0.6-0.6-2-1.6-3-2.1l0.7-0.8
		C89.2,25.8,90.5,26.8,91.3,27.3 M95.8,27.4l0.7,0.8c-1.6,2.6-4.9,5.1-8.1,6.1l-0.5-1C90.9,32.4,94.2,30,95.8,27.4"/>
	<path style="clip-path:url(#SVGID_2_);fill:#FFFFFF;" d="M106.9,33.6h-8.4v-7.9h8.4V33.6z M105.8,26.7h-6.2v5.9h6.2V26.7z"/>
	<rect x="109.3" y="28.8" style="clip-path:url(#SVGID_2_);fill:#FFFFFF;" width="9.5" height="1.1"/>
	<path style="clip-path:url(#SVGID_2_);fill:#FFFFFF;" d="M128.3,30.4l-0.7,0.9c-1.3-0.9-3.1-2-4.6-2.7v5.7h-1.1V24.2h1.1v3.2
		C124.6,28.2,126.8,29.4,128.3,30.4 M125.6,25.5c0.4,0.4,0.8,1,1.2,1.6l-0.5,0.3c-0.3-0.5-0.7-1.1-1.1-1.6L125.6,25.5z M126.8,24.7
		c0.4,0.4,0.8,1,1.2,1.5l-0.5,0.3c-0.3-0.5-0.7-1.1-1.1-1.5L126.8,24.7z"/>
</g>
</svg>
